<svg xmlns="http://www.w3.org/2000/svg" width="1200" height="630" viewBox="0 0 1200 630">
  <defs>
    <linearGradient id="accentText" x1="0" y1="0" x2="1" y2="0.35">
      <stop offset="0" stop-color="#a6bcff"/><stop offset="0.6" stop-color="#a78bff"/><stop offset="1" stop-color="#8466ff"/>
    </linearGradient>
    <linearGradient id="markBg" x1="0" y1="0" x2="0" y2="1">
      <stop offset="0" stop-color="#161922"/><stop offset="1" stop-color="#0a0b0e"/>
    </linearGradient>
    <radialGradient id="au1" cx="16%" cy="-8%" r="58%"><stop offset="0" stop-color="#8466ff" stop-opacity="0.24"/><stop offset="1" stop-color="#8466ff" stop-opacity="0"/></radialGradient>
    <radialGradient id="au2" cx="94%" cy="4%" r="56%"><stop offset="0" stop-color="#7c9cff" stop-opacity="0.18"/><stop offset="1" stop-color="#7c9cff" stop-opacity="0"/></radialGradient>
    <radialGradient id="au3" cx="58%" cy="124%" r="62%"><stop offset="0" stop-color="#5b3fd6" stop-opacity="0.18"/><stop offset="1" stop-color="#5b3fd6" stop-opacity="0"/></radialGradient>
    <linearGradient id="cardTop" x1="0" y1="0" x2="0" y2="1"><stop offset="0" stop-color="#ffffff" stop-opacity="0.04"/><stop offset="0.26" stop-color="#ffffff" stop-opacity="0"/></linearGradient>
    <pattern id="grid" width="58" height="58" patternUnits="userSpaceOnUse"><path d="M58 0H0V58" fill="none" stroke="#ffffff" stroke-opacity="0.028" stroke-width="1"/></pattern>
    <linearGradient id="gridFade" x1="0" y1="0" x2="0" y2="1"><stop offset="0" stop-color="#fff" stop-opacity="1"/><stop offset="0.72" stop-color="#fff" stop-opacity="0"/></linearGradient>
    <mask id="gridMask"><rect width="1200" height="630" fill="url(#gridFade)"/></mask>
  </defs>

  <rect width="1200" height="630" fill="#0a0b0e"/>
  <rect width="1200" height="630" fill="url(#grid)" mask="url(#gridMask)"/>
  <rect width="1200" height="630" fill="url(#au1)"/>
  <rect width="1200" height="630" fill="url(#au2)"/>
  <rect width="1200" height="630" fill="url(#au3)"/>

  <g transform="translate(80,66)">
    <g transform="scale(1.5)">
      <rect x="1" y="1" width="30" height="30" rx="8" fill="url(#markBg)" stroke="#262b37"/>
      <path d="M9 11c0-2.2 1.8-4 4-4h6c2.2 0 4 1.8 4 4v9c0 3-2.2 5-5 5-1.3 0-2.4-.6-3-1.4-.6.8-1.7 1.4-3 1.4-1.6 0-3-1.2-3-3" fill="none" stroke="#7c9cff" stroke-width="1.7" stroke-linecap="round" opacity="0.85"/>
      <rect x="20" y="9" width="2" height="11" rx="1" fill="#a6bcff"/>
    </g>
    <text x="64" y="34" font-family="Helvetica Neue, Helvetica, Arial, sans-serif" font-size="31" font-weight="700" fill="#e8eaf0" letter-spacing="-0.6">Shadowtype</text>
  </g>

  <text x="82" y="194" font-family="Helvetica Neue, Helvetica, Arial, sans-serif" font-size="18" font-weight="600" fill="#a6bcff" letter-spacing="3.2">SHADOWTYPE vs APPLE INTELLIGENCE</text>

  <text x="78" y="262" font-family="Helvetica Neue, Helvetica, Arial, sans-serif" font-size="62" font-weight="800" fill="#e8eaf0" letter-spacing="-2.4">Real inline autocomplete.</text>
  <text x="78" y="334" font-family="Helvetica Neue, Helvetica, Arial, sans-serif" font-size="62" font-weight="800" fill="url(#accentText)" letter-spacing="-2.4">On every Mac, fully local.</text>

  <g transform="translate(78,374)">
    <rect x="0" y="0" width="1044" height="150" rx="20" fill="#101218" stroke="#262b37"/>
    <rect x="0" y="0" width="1044" height="150" rx="20" fill="url(#cardTop)"/>
    <circle cx="30" cy="34" r="6" fill="#ff5f57"/><circle cx="52" cy="34" r="6" fill="#febc2e"/><circle cx="74" cy="34" r="6" fill="#28c840"/>
    <g transform="translate(104,22)"><rect x="0" y="0" width="74" height="24" rx="12" fill="#232836" stroke="#333a4a"/><text x="37" y="16" text-anchor="middle" font-family="Helvetica Neue, Helvetica, Arial, sans-serif" font-size="13" font-weight="600" fill="#e8eaf0">Mail</text></g>
    <g transform="translate(862,21)"><rect x="0" y="0" width="158" height="26" rx="13" fill="#191407" stroke="#564417"/><text x="79" y="17" text-anchor="middle" font-family="Helvetica Neue, Helvetica, Arial, sans-serif" font-size="12.5" font-weight="600" fill="#ffcf6e">Offline · still typing</text></g>
    <text x="34" y="104" xml:space="preserve" font-family="Helvetica Neue, Helvetica, Arial, sans-serif" font-size="27" font-weight="500"><tspan fill="#e8eaf0">Thanks for the update — I&#8217;ll review the </tspan><tspan fill="#5a6076">draft and send notes.</tspan></text>
    <g transform="translate(936,82)"><rect x="0" y="0" width="74" height="34" rx="9" fill="#1d212c" stroke="#262b37"/><rect x="0" y="31" width="74" height="3" rx="1.5" fill="#262b37"/><text x="37" y="23" text-anchor="middle" font-family="Helvetica Neue, Helvetica, Arial, sans-serif" font-size="15" font-weight="600" fill="#e8eaf0">Tab</text></g>
  </g>

  <text x="80" y="576" xml:space="preserve" font-family="Helvetica Neue, Helvetica, Arial, sans-serif" font-size="22" font-weight="560"><tspan fill="#a3a9b8">100% on-device</tspan><tspan fill="#5a6076">   ·   </tspan><tspan fill="#a3a9b8">Works offline</tspan><tspan fill="#5a6076">   ·   </tspan><tspan fill="#a3a9b8">No account</tspan><tspan fill="#5a6076">   ·   </tspan><tspan fill="#a6bcff" font-weight="700">One-time — no subscription</tspan></text>
</svg>